<svg width="24" height="24" viewBox="0 0 24 24" fill="none" xmlns="http://www.w3.org/2000/svg">
<g clip-path="url(#clip0_197_1930)">
<path d="M6.01861 4.33229L12 10.3135L17.9568 4.3569C18.0612 4.24579 18.1869 4.15691 18.3265 4.09558C18.4661 4.03425 18.6166 4.00174 18.7691 4C19.0955 4 19.4085 4.12966 19.6393 4.36046C19.8701 4.59126 19.9998 4.90429 19.9998 5.23069C20.0027 5.38158 19.9747 5.53146 19.9175 5.67114C19.8604 5.81081 19.7753 5.93734 19.6675 6.04295L13.6492 11.9995L19.6675 18.0176C19.8703 18.216 19.9893 18.4848 19.9998 18.7683C19.9998 19.0947 19.8701 19.4078 19.6393 19.6386C19.4085 19.8694 19.0955 19.999 18.7691 19.999C18.6122 20.0055 18.4557 19.9794 18.3095 19.9222C18.1633 19.8649 18.0306 19.778 17.9199 19.6667L12 13.6856L6.03092 19.6544C5.92693 19.7618 5.8027 19.8476 5.66539 19.9067C5.52809 19.9659 5.38043 19.9972 5.23094 19.999C4.90453 19.999 4.59148 19.8694 4.36068 19.6386C4.12987 19.4078 4.0002 19.0947 4.0002 18.7683C3.99733 18.6174 4.02533 18.4676 4.08247 18.3279C4.13961 18.1882 4.2247 18.0617 4.3325 17.9561L10.3508 11.9995L4.3325 5.98142C4.12966 5.78298 4.01071 5.51426 4.0002 5.23069C4.0002 4.90429 4.12987 4.59126 4.36068 4.36046C4.59148 4.12966 4.90453 4 5.23094 4C5.52632 4.00369 5.80939 4.12307 6.01861 4.33229Z" fill="#1E1E1E"/>
</g>
<defs>
<clipPath id="clip0_197_1930">
<rect width="24" height="24" fill="white"/>
</clipPath>
</defs>
</svg>
